<svg width="16" height="16" viewBox="0 0 16 16" fill="none" xmlns="http://www.w3.org/2000/svg">
<path fill-rule="evenodd" clip-rule="evenodd" d="M2 4.00004C2 3.63185 2.29848 3.33337 2.66667 3.33337L13.3333 3.33337C13.7015 3.33337 14 3.63185 14 4.00004C14 4.36823 13.7015 4.66671 13.3333 4.66671L2.66667 4.66671C2.29848 4.66671 2 4.36823 2 4.00004Z" fill="#172B4D"/>
<path fill-rule="evenodd" clip-rule="evenodd" d="M3.33333 8.00004C3.33333 7.63185 3.63181 7.33337 4 7.33337L12 7.33337C12.3682 7.33337 12.6667 7.63185 12.6667 8.00004C12.6667 8.36823 12.3682 8.66671 12 8.66671L4 8.66671C3.63181 8.66671 3.33333 8.36823 3.33333 8.00004Z" fill="#172B4D"/>
<path fill-rule="evenodd" clip-rule="evenodd" d="M4.66667 12C4.66667 11.6319 4.96514 11.3334 5.33333 11.3334L10.6667 11.3334C11.0349 11.3334 11.3333 11.6318 11.3333 12C11.3333 12.3682 11.0349 12.6667 10.6667 12.6667L5.33333 12.6667C4.96514 12.6667 4.66667 12.3682 4.66667 12Z" fill="#172B4D"/>
</svg>
