<svg width="17" height="17" viewBox="0 0 17 17" fill="none" xmlns="http://www.w3.org/2000/svg">
<path fill-rule="evenodd" clip-rule="evenodd" d="M5 6.66667C5 4.825 6.49167 3.33333 8.33333 3.33333C10.175 3.33333 11.6667 4.825 11.6667 6.66667C11.6667 8.50833 10.175 10 8.33333 10C6.49167 10 5 8.50833 5 6.66667ZM6.66667 6.66667C6.66667 7.58333 7.41667 8.33333 8.33333 8.33333C9.25 8.33333 10 7.58333 10 6.66667C10 5.75 9.25 5 8.33333 5C7.41667 5 6.66667 5.75 6.66667 6.66667Z" fill="#758195"/>
<path fill-rule="evenodd" clip-rule="evenodd" d="M0 8.33333C0 3.74167 3.74167 0 8.33333 0C12.925 0 16.6667 3.74167 16.6667 8.33333C16.6667 12.925 12.925 16.6667 8.33333 16.6667C3.74167 16.6667 0 12.925 0 8.33333ZM8.33333 12.5C6.93333 12.5 5.58333 12.9417 4.45833 13.75C5.55 14.5333 6.89167 15 8.33333 15C9.775 15 11.1167 14.5333 12.2083 13.75C11.0833 12.9417 9.73333 12.5 8.33333 12.5ZM8.33333 10.8333C10.2 10.8333 11.9917 11.4583 13.45 12.6C14.4167 11.4417 15 9.95833 15 8.33333C15 4.65833 12.0083 1.66667 8.33333 1.66667C4.65833 1.66667 1.66667 4.65833 1.66667 8.33333C1.66667 9.95833 2.25 11.4417 3.21667 12.6C4.675 11.4583 6.46667 10.8333 8.33333 10.8333Z" fill="#758195"/>
</svg>
