<svg width="15" height="17" viewBox="0 0 15 17" fill="none" xmlns="http://www.w3.org/2000/svg">
<path d="M5 8.33333V10H3.33333V8.33333H5Z" fill="#758195"/>
<path d="M5 13.3333V11.6667H3.33333V13.3333H5Z" fill="#758195"/>
<path d="M6.66667 8.33333H8.33333V10H6.66667V8.33333Z" fill="#758195"/>
<path d="M8.33333 11.6667H6.66667V13.3333H8.33333V11.6667Z" fill="#758195"/>
<path d="M11.6667 8.33333V10H10V8.33333H11.6667Z" fill="#758195"/>
<path d="M11.6667 13.3333V11.6667H10V13.3333H11.6667Z" fill="#758195"/>
<path fill-rule="evenodd" clip-rule="evenodd" d="M5 0.833333C5 0.373096 4.6269 0 4.16667 0C3.70643 0 3.33333 0.373096 3.33333 0.833333V1.66667H2.5C1.11929 1.66667 0 2.78595 0 4.16667V14.1667C0 15.5474 1.11929 16.6667 2.5 16.6667H12.5C13.8807 16.6667 15 15.5474 15 14.1667V4.16667C15 2.78595 13.8807 1.66667 12.5 1.66667H11.6667V0.833333C11.6667 0.373096 11.2936 0 10.8333 0C10.3731 0 10 0.373096 10 0.833333V1.66667H5V0.833333ZM1.66667 4.16667C1.66667 3.70643 2.03976 3.33333 2.5 3.33333H12.5C12.9602 3.33333 13.3333 3.70643 13.3333 4.16667V5H1.66667V4.16667ZM1.66667 6.66667V14.1667C1.66667 14.6269 2.03976 15 2.5 15H12.5C12.9602 15 13.3333 14.6269 13.3333 14.1667V6.66667H1.66667Z" fill="#758195"/>
</svg>
