<svg width="16" height="17" viewBox="0 0 16 17" fill="none" xmlns="http://www.w3.org/2000/svg">
<path fill-rule="evenodd" clip-rule="evenodd" d="M4.16667 0C4.6269 0 5 0.373096 5 0.833333V1.66667H10V0.833333C10 0.373096 10.3731 0 10.8333 0C11.2936 0 11.6667 0.373096 11.6667 0.833333V1.66667H12.5C13.8807 1.66667 15 2.78595 15 4.16667V7.91667C15 8.3769 14.6269 8.75 14.1667 8.75C13.7064 8.75 13.3333 8.3769 13.3333 7.91667V6.66667H1.66667V14.1667C1.66667 14.6269 2.03976 15 2.5 15H7.91667C8.3769 15 8.75 15.3731 8.75 15.8333C8.75 16.2936 8.3769 16.6667 7.91667 16.6667H2.5C1.11929 16.6667 0 15.5474 0 14.1667V4.16667C0 2.78595 1.11929 1.66667 2.5 1.66667H3.33333V0.833333C3.33333 0.373096 3.70643 0 4.16667 0ZM13.3333 4.16667V5H1.66667V4.16667C1.66667 3.70643 2.03976 3.33333 2.5 3.33333H12.5C12.9602 3.33333 13.3333 3.70643 13.3333 4.16667Z" fill="#758195"/>
<path d="M13.3333 10.8333C13.3333 10.3731 12.9602 10 12.5 10C12.0398 10 11.6667 10.3731 11.6667 10.8333V12.5H10C9.53976 12.5 9.16667 12.8731 9.16667 13.3333C9.16667 13.7936 9.53976 14.1667 10 14.1667H11.6667V15.8333C11.6667 16.2936 12.0398 16.6667 12.5 16.6667C12.9602 16.6667 13.3333 16.2936 13.3333 15.8333V14.1667H15C15.4602 14.1667 15.8333 13.7936 15.8333 13.3333C15.8333 12.8731 15.4602 12.5 15 12.5H13.3333V10.8333Z" fill="#758195"/>
</svg>
