<svg width="17" height="17" viewBox="0 0 17 17" fill="none" xmlns="http://www.w3.org/2000/svg">
<path d="M11.6667 4.58333C11.6667 5.27369 11.107 5.83333 10.4167 5.83333C9.72631 5.83333 9.16667 5.27369 9.16667 4.58333C9.16667 3.89298 9.72631 3.33333 10.4167 3.33333C11.107 3.33333 11.6667 3.89298 11.6667 4.58333Z" fill="#758195"/>
<path d="M13.75 7.91667C13.75 8.60702 13.1904 9.16667 12.5 9.16667C11.8096 9.16667 11.25 8.60702 11.25 7.91667C11.25 7.22631 11.8096 6.66667 12.5 6.66667C13.1904 6.66667 13.75 7.22631 13.75 7.91667Z" fill="#758195"/>
<path d="M7.5 4.58333C7.5 5.27369 6.94036 5.83333 6.25 5.83333C5.55964 5.83333 5 5.27369 5 4.58333C5 3.89298 5.55964 3.33333 6.25 3.33333C6.94036 3.33333 7.5 3.89298 7.5 4.58333Z" fill="#758195"/>
<path d="M5.41667 7.91667C5.41667 8.60702 4.85702 9.16667 4.16667 9.16667C3.47631 9.16667 2.91667 8.60702 2.91667 7.91667C2.91667 7.22631 3.47631 6.66667 4.16667 6.66667C4.85702 6.66667 5.41667 7.22631 5.41667 7.91667Z" fill="#758195"/>
<path fill-rule="evenodd" clip-rule="evenodd" d="M8.33333 1.66667C4.65143 1.66667 1.66667 4.65143 1.66667 8.33333C1.66667 12.0152 4.65143 15 8.33333 15H8.64299C8.9322 15 9.16667 14.7656 9.16667 14.4763V14.4173C9.16667 14.279 9.09757 14.1499 8.98252 14.0732C8.28115 13.6056 7.93129 12.761 8.09661 11.9344L8.10118 11.9116C8.3283 10.776 9.42655 10.0342 10.5648 10.2476L12.3239 10.5775C13.7059 10.8366 15 9.75698 15 8.33333C15 4.65143 12.0152 1.66667 8.33333 1.66667ZM0 8.33333C0 3.73096 3.73096 0 8.33333 0C12.9357 0 16.6667 3.73096 16.6667 8.33333C16.6667 10.783 14.4417 12.6702 12.0167 12.2156L10.2577 11.8858C10.0164 11.8405 9.78362 11.9977 9.73548 12.2385L9.73091 12.2613C9.69805 12.4256 9.7676 12.5935 9.90702 12.6865C10.4857 13.0723 10.8333 13.7218 10.8333 14.4173V14.4763C10.8333 15.686 9.85275 16.6667 8.64299 16.6667H8.33333C3.73096 16.6667 0 12.9357 0 8.33333Z" fill="#758195"/>
</svg>
