<svg width="24" height="26" viewBox="0 0 24 26" fill="none" xmlns="http://www.w3.org/2000/svg">
<path d="M20.2761 0.390524C19.7554 -0.130175 18.9112 -0.130175 18.3905 0.390524L15.0572 3.72386C14.5365 4.24456 14.5365 5.08878 15.0572 5.60948C15.5779 6.13018 16.4221 6.13018 16.9428 5.60948L18 4.55229V8C18 8.73638 18.597 9.33333 19.3333 9.33333C20.0697 9.33333 20.6667 8.73638 20.6667 8V4.55229L21.7239 5.60948C22.2446 6.13018 23.0888 6.13018 23.6095 5.60948C24.1302 5.08878 24.1302 4.24456 23.6095 3.72386L20.2761 0.390524Z" fill="#758195"/>
<path fill-rule="evenodd" clip-rule="evenodd" d="M2.66667 5.33333C2.66667 4.59695 3.26362 4 4 4H12C12.7364 4 13.3333 3.40305 13.3333 2.66667C13.3333 1.93029 12.7364 1.33333 12 1.33333H4C1.79086 1.33333 0 3.12419 0 5.33333V21.3333C0 23.5425 1.79086 25.3333 4 25.3333H20C22.2091 25.3333 24 23.5425 24 21.3333V20.0175C24.0001 20.0083 24.0001 19.999 24.0001 19.9897L24 19.9824V10.963C24 10.2266 23.403 9.62963 22.6667 9.62963C21.9303 9.62963 21.3333 10.2266 21.3333 10.963V16.7809L17.7339 13.1815C16.8189 12.2665 15.3791 12.1404 14.3191 12.8825L2.66667 21.0392V5.33333ZM15.8483 15.0671L21.3333 20.5521V21.3333C21.3333 22.0697 20.7364 22.6667 20 22.6667H4.99178L15.8483 15.0671Z" fill="#758195"/>
<path d="M8 6.66667C6.52724 6.66667 5.33333 7.86057 5.33333 9.33333C5.33333 10.8061 6.52724 12 8 12C9.47276 12 10.6667 10.8061 10.6667 9.33333C10.6667 7.86057 9.47276 6.66667 8 6.66667Z" fill="#758195"/>
</svg>
