<svg width="16" height="16" viewBox="0 0 16 16" fill="none" xmlns="http://www.w3.org/2000/svg">
<path fill-rule="evenodd" clip-rule="evenodd" d="M4 3.33333C3.63181 3.33333 3.33333 3.63181 3.33333 4V12C3.33333 12.3682 3.63181 12.6667 4 12.6667H5.5V3.33333H4ZM6.83333 3.33333V12.6667H9.16667V3.33333H6.83333ZM10.5 3.33333V12.6667H12C12.3682 12.6667 12.6667 12.3682 12.6667 12V4C12.6667 3.63181 12.3682 3.33333 12 3.33333H10.5ZM2 4C2 2.89543 2.89543 2 4 2H12C13.1046 2 14 2.89543 14 4V12C14 13.1046 13.1046 14 12 14H4C2.89543 14 2 13.1046 2 12V4Z" fill="#172B4D"/>
</svg>
