<svg width="36" height="36" viewBox="0 0 36 36" fill="none" xmlns="http://www.w3.org/2000/svg">
<path d="M13.8334 9.66667C12.4527 9.66667 11.3334 10.786 11.3334 12.1667V23.8333C11.3334 25.2141 12.4527 26.3333 13.8334 26.3333H18C18.4603 26.3333 18.8334 25.9602 18.8334 25.5C18.8334 25.0398 18.4603 24.6667 18 24.6667H13.8334C13.3731 24.6667 13 24.2936 13 23.8333V12.1667C13 11.7064 13.3731 11.3333 13.8334 11.3333H22.1667C22.6269 11.3333 23 11.7064 23 12.1667V16.75C23 17.2102 23.3731 17.5833 23.8334 17.5833C24.2936 17.5833 24.6667 17.2102 24.6667 16.75V12.1667C24.6667 10.786 23.5474 9.66667 22.1667 9.66667H13.8334Z" fill="#009966"/>
<path d="M15.5 16.3333C15.0398 16.3333 14.6667 16.7064 14.6667 17.1667C14.6667 17.6269 15.0398 18 15.5 18H18.8334C19.2936 18 19.6667 17.6269 19.6667 17.1667C19.6667 16.7064 19.2936 16.3333 18.8334 16.3333H15.5Z" fill="#009966"/>
<path d="M14.6667 13.8333C14.6667 13.3731 15.0398 13 15.5 13H20.5C20.9603 13 21.3334 13.3731 21.3334 13.8333C21.3334 14.2936 20.9603 14.6667 20.5 14.6667H15.5C15.0398 14.6667 14.6667 14.2936 14.6667 13.8333Z" fill="#009966"/>
<path d="M15.5 19.6667C15.0398 19.6667 14.6667 20.0398 14.6667 20.5C14.6667 20.9602 15.0398 21.3333 15.5 21.3333H17.1667C17.6269 21.3333 18 20.9602 18 20.5C18 20.0398 17.6269 19.6667 17.1667 19.6667H15.5Z" fill="#009966"/>
<path fill-rule="evenodd" clip-rule="evenodd" d="M18.8334 21.9583C18.8334 20.2324 20.2325 18.8333 21.9584 18.8333C23.6843 18.8333 25.0834 20.2324 25.0834 21.9583C25.0834 22.5186 24.9359 23.0445 24.6777 23.4992L26.0893 24.9107C26.4147 25.2362 26.4147 25.7638 26.0893 26.0893C25.7639 26.4147 25.2362 26.4147 24.9108 26.0893L23.4992 24.6777C23.0445 24.9359 22.5187 25.0833 21.9584 25.0833C20.2325 25.0833 18.8334 23.6842 18.8334 21.9583ZM21.9584 20.5C21.153 20.5 20.5 21.1529 20.5 21.9583C20.5 22.7638 21.153 23.4167 21.9584 23.4167C22.7638 23.4167 23.4167 22.7638 23.4167 21.9583C23.4167 21.1529 22.7638 20.5 21.9584 20.5Z" fill="#009966"/>
</svg>
