<svg width="12" height="10" viewBox="0 0 12 10" fill="none" xmlns="http://www.w3.org/2000/svg">
<path fill-rule="evenodd" clip-rule="evenodd" d="M0 0.666667C3.21883e-08 0.298477 0.298477 -3.21882e-08 0.666667 0L11.3333 9.3251e-07C11.7015 9.64698e-07 12 0.298478 12 0.666668C12 1.03486 11.7015 1.33333 11.3333 1.33333L0.666667 1.33333C0.298477 1.33333 -3.2188e-08 1.03486 0 0.666667Z" fill="#172B4D"/>
<path fill-rule="evenodd" clip-rule="evenodd" d="M1.33333 4.66667C1.33333 4.29848 1.63181 4 2 4L10 4C10.3682 4 10.6667 4.29848 10.6667 4.66667C10.6667 5.03486 10.3682 5.33333 10 5.33333L2 5.33333C1.63181 5.33333 1.33333 5.03486 1.33333 4.66667Z" fill="#172B4D"/>
<path fill-rule="evenodd" clip-rule="evenodd" d="M2.66667 8.66667C2.66667 8.29848 2.96514 8 3.33333 8L8.66667 8C9.03486 8 9.33333 8.29848 9.33333 8.66667C9.33333 9.03485 9.03486 9.33333 8.66667 9.33333L3.33333 9.33333C2.96514 9.33333 2.66667 9.03486 2.66667 8.66667Z" fill="#172B4D"/>
</svg>
