<svg width="16" height="16" viewBox="0 0 16 16" fill="none" xmlns="http://www.w3.org/2000/svg">
<g clip-path="url(#clip0_4456_382)">
<path d="M6.66683 2.66663L5.3335 3.99996" stroke="#767A84" stroke-width="1.33333" stroke-linecap="round" stroke-linejoin="round"/>
<path d="M11.3335 12.6666V14" stroke="#767A84" stroke-width="1.33333" stroke-linecap="round" stroke-linejoin="round"/>
<path d="M1.3335 8H14.6668" stroke="#767A84" stroke-width="1.33333" stroke-linecap="round" stroke-linejoin="round"/>
<path d="M4.6665 12.6666V14" stroke="#767A84" stroke-width="1.33333" stroke-linecap="round" stroke-linejoin="round"/>
<path d="M5.99984 3.33336L5.0805 2.41403C4.88771 2.22034 4.64293 2.08667 4.37576 2.02919C4.10859 1.97171 3.83049 1.99288 3.5751 2.09014C3.31971 2.1874 3.09798 2.35659 2.93673 2.57722C2.77548 2.79786 2.68162 3.0605 2.6665 3.33336V11.3334C2.6665 11.687 2.80698 12.0261 3.05703 12.2762C3.30708 12.5262 3.64622 12.6667 3.99984 12.6667H11.9998C12.3535 12.6667 12.6926 12.5262 12.9426 12.2762C13.1927 12.0261 13.3332 11.687 13.3332 11.3334V8.00003" stroke="#767A84" stroke-width="1.33333" stroke-linecap="round" stroke-linejoin="round"/>
</g>
<defs>
<clipPath id="clip0_4456_382">
<rect width="16" height="16" fill="white"/>
</clipPath>
</defs>
</svg>
